<?xml version="1.0" standalone="no"?><!DOCTYPE svg PUBLIC "-//W3C//DTD SVG 1.1//EN" "http://www.w3.org/Graphics/SVG/1.1/DTD/svg11.dtd"><svg t="1742220660903" class="icon" viewBox="0 0 1024 1024" version="1.1" xmlns="http://www.w3.org/2000/svg" p-id="2379" width="256" height="256" xmlns:xlink="http://www.w3.org/1999/xlink"><path d="M491.12 85.4c13.68-3.66 28.08-3.66 41.76 0 15.9 4.38 29.28 14.88 39.96 23.22l3 2.4 271.32 210.96 3.06 2.4c15.12 11.7 28.38 22.02 38.28 35.4 8.64 11.7 15.12 24.96 19.08 39 4.44 16.02 4.44 32.82 4.44 51.9v294.9c0 21 0 39.24-1.2 54.24-1.32 15.78-4.2 31.5-11.88 46.68a120 120 0 0 1-52.44 52.44 122.16 122.16 0 0 1-46.68 11.82c-15 1.2-33.18 1.2-54.3 1.2H278.48c-21.12 0-39.3 0-54.3-1.2a122.16 122.16 0 0 1-46.68-11.82 120 120 0 0 1-52.44-52.44 122.22 122.22 0 0 1-11.82-46.68c-1.2-15-1.2-33.18-1.2-54.3V454.58v-3.9c-0.06-19.08-0.06-35.88 4.38-51.9a120 120 0 0 1 19.08-39c9.9-13.38 23.16-23.7 38.28-35.4l3.06-2.4 271.32-211.02 3-2.34c10.68-8.4 24-18.84 39.96-23.16z m20.58 77.88c-3 1.98-6.96 5.04-14.4 10.8L225.92 385.22c-19.92 15.48-23.64 18.78-26.16 22.2a40.02 40.02 0 0 0-6.36 12.96c-1.14 4.08-1.44 9-1.44 34.26v289.44c0 23.04 0 37.92 0.96 49.26 0.84 10.86 2.4 14.88 3.36 16.86a39.96 39.96 0 0 0 17.52 17.52c1.98 0.96 6 2.52 16.8 3.36 11.4 0.96 26.28 0.96 49.32 0.96h464.04c23.04 0 37.92 0 49.26-0.96 10.86-0.84 14.88-2.4 16.86-3.36a39.96 39.96 0 0 0 17.52-17.52c1.02-1.98 2.52-6 3.36-16.86 0.96-11.34 0.96-26.22 0.96-49.26V454.58c0-25.2-0.3-30.18-1.44-34.2a40.08 40.08 0 0 0-6.36-13.02c-2.52-3.42-6.24-6.72-26.16-22.2L526.76 174.14A291.18 291.18 0 0 0 512 163.04l-0.3 0.24zM512 471.98A79.98 79.98 0 1 0 512 632a79.98 79.98 0 0 0 0-160.02zM351.98 552.02a160.02 160.02 0 1 1 320.04 0 160.02 160.02 0 0 1-320.04 0z" p-id="2380"></path></svg>