<?xml version="1.0" standalone="no"?><!DOCTYPE svg PUBLIC "-//W3C//DTD SVG 1.1//EN" "http://www.w3.org/Graphics/SVG/1.1/DTD/svg11.dtd"><svg t="1742220676609" class="icon" viewBox="0 0 1024 1024" version="1.1" xmlns="http://www.w3.org/2000/svg" p-id="3110" width="256" height="256" xmlns:xlink="http://www.w3.org/1999/xlink"><path d="M511.71874999 931.90625001c-56.625 0-111.65625001-11.0625-163.40624999-33.00000002-49.96875001-21.09375001-94.875-51.375-133.40625001-89.90624999-38.53125001-38.53125001-68.8125-83.4375-89.90624999-133.40625001C103.0625 623.84375001 92 568.90625001 92 512.1875c0-90.75 28.5-177.09375001 82.3125-249.75 25.875-34.96875001 56.90625001-65.53125001 92.25-91.03125001 35.71875001-25.78125001 75.09375001-45.65625001 116.90625001-59.06249998 14.8125-4.78125001 30.65625001 3.375 35.34374999 18.1875 4.78125001 14.8125-3.375 30.65625001-18.1875 35.34374999-150.9375 48.375-252.375 187.5-252.375 346.21875001 0 200.4375 163.03125001 363.46875001 363.46875001 363.46874999 158.53125001 0 297.65625001-101.34375001 346.12499998-252.09375001 4.78125001-14.8125 20.625-22.96875001 35.34375001-18.18749998 14.8125 4.78125001 22.96875001 20.625 18.1875 35.34374999-13.40625001 41.8125-33.28125001 81.09375001-59.0625 116.8125a420.178125 420.178125 0 0 1-91.03125001 92.15625001c-72.5625 53.90625001-158.90625001 82.3125-249.56249998 82.31249998z" p-id="3111"></path><path d="M903.3125 540.78125001H508.4375c-7.5 0-14.71875001-3-19.96875001-8.34375001-5.25-5.34375001-8.25-12.5625-8.15624999-20.0625l3.28125001-391.59375001c0.09375001-15.46875001 12.65625001-27.84375001 28.12499998-27.84374999 56.625 0 111.65625001 11.0625 163.40625001 33 49.96875001 21.09375001 94.875 51.375 133.40625001 89.90625001 38.53125001 38.53125001 68.8125 83.4375 89.90624999 133.40624999 21.9375 51.75 33 106.6875 33 163.40625001 0 15.5625-12.5625 28.125-28.125 28.12499998z m-366.46875001-56.25000002h337.31250002c-13.6875-178.125-156.375-320.71875001-334.50000002-334.31249998l-2.81249998 334.31249998z" p-id="3112"></path></svg>