<?xml version="1.0" standalone="no"?><!DOCTYPE svg PUBLIC "-//W3C//DTD SVG 1.1//EN" "http://www.w3.org/Graphics/SVG/1.1/DTD/svg11.dtd"><svg t="1742220672496" class="icon" viewBox="0 0 1194 1024" version="1.1" xmlns="http://www.w3.org/2000/svg" p-id="2930" width="298.5" height="256" xmlns:xlink="http://www.w3.org/1999/xlink"><path d="M586.99999971 324.50000029a187.49999971 187.49999971 0 0 0 0 374.99999942 187.49999971 187.49999971 0 0 0 0-374.99999942z m0 299.99999971c-62.25000029 0-112.5-50.24999971-112.5-112.5S524.75000029 399.5 586.99999971 399.5s112.5 50.24999971 112.5 112.5S649.25 624.5 586.99999971 624.5z" p-id="2931"></path><path d="M849.5 62h-524.99999971L62 512l262.50000029 450h524.99999971L1112.00000029 512l-262.50000029-450z m-42.75 825.00000029H368L149.00000029 512l218.25-375.00000029h438.75l218.99999971 375.00000029-218.99999971 375.00000029z" p-id="2932"></path></svg>